<mxfile host="65bd71144e" pages="4">
    <diagram id="piDafpqhtRUU5qUU-vj8" name="HOME,TOP">
        <mxGraphModel dx="1298" dy="545" grid="0" gridSize="10" guides="1" tooltips="1" connect="1" arrows="1" fold="1" page="0" pageScale="1" pageWidth="827" pageHeight="1169" background="#A3A3A3" math="0" shadow="0">
            <root>
                <mxCell id="0"/>
                <mxCell id="1" parent="0"/>
                <mxCell id="NrnYse5RyvZVc1ZElW-V-2" value="" style="rounded=0;whiteSpace=wrap;html=1;" parent="1" vertex="1">
                    <mxGeometry x="50" y="45" width="240" height="360" as="geometry"/>
                </mxCell>
                <mxCell id="NrnYse5RyvZVc1ZElW-V-3" value="&lt;b&gt;&lt;font style=&quot;font-size: 15px&quot;&gt;Piano採点&lt;/font&gt;&lt;/b&gt;" style="text;html=1;strokeColor=none;fillColor=none;align=center;verticalAlign=middle;whiteSpace=wrap;rounded=0;" parent="1" vertex="1">
                    <mxGeometry x="115" y="100" width="120" height="60" as="geometry"/>
                </mxCell>
                <mxCell id="NrnYse5RyvZVc1ZElW-V-4" value="" style="rounded=0;whiteSpace=wrap;html=1;fillColor=#000000;" parent="1" vertex="1">
                    <mxGeometry x="50" y="40" width="240" height="30" as="geometry"/>
                </mxCell>
                <mxCell id="MK5epuqS48yFH86WNLbe-5" value="" style="group" parent="1" vertex="1" connectable="0">
                    <mxGeometry x="50" y="180" width="210" height="30" as="geometry"/>
                </mxCell>
                <mxCell id="MK5epuqS48yFH86WNLbe-1" value="" style="line;strokeWidth=2;html=1;fillColor=#FFFFFF;" parent="MK5epuqS48yFH86WNLbe-5" vertex="1">
                    <mxGeometry y="10" width="40" height="10" as="geometry"/>
                </mxCell>
                <mxCell id="MK5epuqS48yFH86WNLbe-2" value="&lt;pre&gt;&lt;font style=&quot;font-size: 12px&quot; face=&quot;Georgia&quot;&gt;&lt;b&gt;採点&lt;/b&gt;&lt;/font&gt;&lt;/pre&gt;" style="rounded=0;whiteSpace=wrap;html=1;fillColor=#000000;strokeColor=#FFFFFF;fontColor=#FFFFFF;" parent="MK5epuqS48yFH86WNLbe-5" vertex="1">
                    <mxGeometry x="40" width="170" height="30" as="geometry"/>
                </mxCell>
                <mxCell id="MK5epuqS48yFH86WNLbe-6" value="" style="group" parent="1" vertex="1" connectable="0">
                    <mxGeometry x="50" y="230" width="210" height="30" as="geometry"/>
                </mxCell>
                <mxCell id="MK5epuqS48yFH86WNLbe-3" value="" style="line;strokeWidth=2;html=1;fillColor=#FFFFFF;" parent="MK5epuqS48yFH86WNLbe-6" vertex="1">
                    <mxGeometry y="10" width="40" height="10" as="geometry"/>
                </mxCell>
                <mxCell id="MK5epuqS48yFH86WNLbe-4" value="&lt;b&gt;&lt;font face=&quot;Garamond&quot;&gt;使い方&lt;/font&gt;&lt;/b&gt;" style="rounded=0;whiteSpace=wrap;html=1;fillColor=#000000;strokeColor=#FFFFFF;fontColor=#FFFFFF;" parent="MK5epuqS48yFH86WNLbe-6" vertex="1">
                    <mxGeometry x="40" width="170" height="30" as="geometry"/>
                </mxCell>
                <mxCell id="3Rc3quBiNQkCrMvvBPKZ-2" value="" style="rounded=0;whiteSpace=wrap;html=1;" parent="1" vertex="1">
                    <mxGeometry x="190" y="451.5" width="440" height="610" as="geometry"/>
                </mxCell>
                <mxCell id="3Rc3quBiNQkCrMvvBPKZ-5" value="ファイル選択" style="rounded=1;whiteSpace=wrap;html=1;fontColor=#FFFFFF;fillColor=#080808;" parent="1" vertex="1">
                    <mxGeometry x="220" y="620" width="130" height="30" as="geometry"/>
                </mxCell>
                <mxCell id="3Rc3quBiNQkCrMvvBPKZ-7" value="ファイル名の登録" style="rounded=1;whiteSpace=wrap;html=1;fillColor=#080808;fontColor=#FFFFFF;" parent="1" vertex="1">
                    <mxGeometry x="220" y="564.5" width="130" height="30" as="geometry"/>
                </mxCell>
                <mxCell id="3Rc3quBiNQkCrMvvBPKZ-8" value="名前" style="rounded=1;whiteSpace=wrap;html=1;labelBackgroundColor=#080808;fillColor=#080808;fontColor=#FFFFFF;" parent="1" vertex="1">
                    <mxGeometry x="220" y="510" width="130" height="30" as="geometry"/>
                </mxCell>
                <mxCell id="3Rc3quBiNQkCrMvvBPKZ-9" value="曲のタグを選択" style="rounded=1;whiteSpace=wrap;html=1;fillColor=#080808;fontColor=#FFFFFF;" parent="1" vertex="1">
                    <mxGeometry x="220" y="680" width="130" height="30" as="geometry"/>
                </mxCell>
                <mxCell id="3Rc3quBiNQkCrMvvBPKZ-10" value="" style="rounded=0;whiteSpace=wrap;html=1;" parent="1" vertex="1">
                    <mxGeometry x="390" y="520" width="210" height="20" as="geometry"/>
                </mxCell>
                <mxCell id="3Rc3quBiNQkCrMvvBPKZ-11" value="" style="rounded=0;whiteSpace=wrap;html=1;" parent="1" vertex="1">
                    <mxGeometry x="390" y="570" width="210" height="20" as="geometry"/>
                </mxCell>
                <mxCell id="3Rc3quBiNQkCrMvvBPKZ-12" value="" style="rounded=0;whiteSpace=wrap;html=1;" parent="1" vertex="1">
                    <mxGeometry x="390" y="630" width="210" height="20" as="geometry"/>
                </mxCell>
                <mxCell id="3Rc3quBiNQkCrMvvBPKZ-13" value="" style="rounded=0;whiteSpace=wrap;html=1;" parent="1" vertex="1">
                    <mxGeometry x="390" y="690" width="210" height="20" as="geometry"/>
                </mxCell>
                <mxCell id="3Rc3quBiNQkCrMvvBPKZ-27" value="" style="verticalLabelPosition=bottom;verticalAlign=top;html=1;shape=mxgraph.basic.acute_triangle;dx=0.5;rotation=-180;labelBackgroundColor=none;fillColor=#080808;" parent="1" vertex="1">
                    <mxGeometry x="581" y="696" width="10" height="10" as="geometry"/>
                </mxCell>
                <mxCell id="3Rc3quBiNQkCrMvvBPKZ-31" value="採点" style="rounded=1;fillColor=#0057D8;align=center;strokeColor=none;html=1;fontColor=#ffffff;fontSize=12;labelBackgroundColor=none;" parent="1" vertex="1">
                    <mxGeometry x="370" y="740" width="80" height="33" as="geometry"/>
                </mxCell>
                <mxCell id="3Rc3quBiNQkCrMvvBPKZ-33" value="&lt;font style=&quot;font-size: 35px;&quot;&gt;Score&lt;br style=&quot;font-size: 35px;&quot;&gt;&lt;font color=&quot;#ff0000&quot; style=&quot;font-size: 35px;&quot;&gt;98&lt;/font&gt;&lt;/font&gt;" style="text;html=1;strokeColor=none;fillColor=none;align=center;verticalAlign=middle;whiteSpace=wrap;rounded=0;labelBackgroundColor=none;fontSize=35;" parent="1" vertex="1">
                    <mxGeometry x="230" y="800" width="170" height="90" as="geometry"/>
                </mxCell>
                <mxCell id="3Rc3quBiNQkCrMvvBPKZ-35" value="&lt;font color=&quot;#ff0000&quot;&gt;25&lt;/font&gt;/120人中（曲：エリーゼのために）" style="text;html=1;strokeColor=none;fillColor=none;align=center;verticalAlign=middle;whiteSpace=wrap;rounded=0;labelBackgroundColor=none;fontSize=11;" parent="1" vertex="1">
                    <mxGeometry x="400" y="900" width="220" height="20" as="geometry"/>
                </mxCell>
                <mxCell id="3Rc3quBiNQkCrMvvBPKZ-36" value="&lt;font style=&quot;font-size: 10px&quot;&gt;これまでの記録&lt;br style=&quot;font-size: 10px&quot;&gt;&lt;/font&gt;" style="rounded=0;whiteSpace=wrap;html=1;labelBackgroundColor=none;fontSize=10;align=center;horizontal=1;verticalAlign=middle;fontColor=#FFFFFF;fillColor=#080808;" parent="1" vertex="1">
                    <mxGeometry x="220" y="960" width="200" height="30" as="geometry"/>
                </mxCell>
                <mxCell id="3Rc3quBiNQkCrMvvBPKZ-37" value="&lt;font style=&quot;font-size: 10px&quot;&gt;みんなの記録&lt;br style=&quot;font-size: 10px&quot;&gt;&lt;/font&gt;" style="rounded=0;whiteSpace=wrap;html=1;labelBackgroundColor=none;fontSize=10;align=center;horizontal=1;verticalAlign=middle;fillColor=#080808;fontColor=#FFFFFF;" parent="1" vertex="1">
                    <mxGeometry x="220" y="1000" width="200" height="30" as="geometry"/>
                </mxCell>
                <mxCell id="3Rc3quBiNQkCrMvvBPKZ-39" value="▶︎ランキングを見る" style="text;html=1;strokeColor=none;fillColor=none;align=center;verticalAlign=middle;whiteSpace=wrap;rounded=0;labelBackgroundColor=none;fontSize=10;fontStyle=4" parent="1" vertex="1">
                    <mxGeometry x="480" y="920" width="110" height="20" as="geometry"/>
                </mxCell>
                <mxCell id="3Rc3quBiNQkCrMvvBPKZ-41" value="" style="endArrow=classic;html=1;fontSize=10;" parent="1" source="3Rc3quBiNQkCrMvvBPKZ-10" edge="1">
                    <mxGeometry width="50" height="50" relative="1" as="geometry">
                        <mxPoint x="690" y="560" as="sourcePoint"/>
                        <mxPoint x="650" y="516" as="targetPoint"/>
                    </mxGeometry>
                </mxCell>
                <mxCell id="3Rc3quBiNQkCrMvvBPKZ-42" value="ログインしていたら&lt;br&gt;自動表示" style="text;html=1;align=center;verticalAlign=middle;resizable=0;points=[];autosize=1;strokeColor=none;fontSize=10;" parent="1" vertex="1">
                    <mxGeometry x="660" y="505" width="100" height="30" as="geometry"/>
                </mxCell>
                <mxCell id="3Rc3quBiNQkCrMvvBPKZ-43" value="" style="endArrow=classic;html=1;fontSize=10;" parent="1" edge="1">
                    <mxGeometry width="50" height="50" relative="1" as="geometry">
                        <mxPoint x="600" y="630.6403225806451" as="sourcePoint"/>
                        <mxPoint x="650" y="629.35" as="targetPoint"/>
                    </mxGeometry>
                </mxCell>
                <mxCell id="3Rc3quBiNQkCrMvvBPKZ-44" value="ファイル形式&lt;br&gt;バリデーション" style="text;html=1;align=center;verticalAlign=middle;resizable=0;points=[];autosize=1;strokeColor=none;fontSize=10;" parent="1" vertex="1">
                    <mxGeometry x="665" y="615" width="90" height="30" as="geometry"/>
                </mxCell>
                <mxCell id="3Rc3quBiNQkCrMvvBPKZ-45" value="" style="group" parent="1" vertex="1" connectable="0">
                    <mxGeometry x="50" y="280" width="210" height="30" as="geometry"/>
                </mxCell>
                <mxCell id="3Rc3quBiNQkCrMvvBPKZ-46" value="" style="line;strokeWidth=2;html=1;fillColor=#FFFFFF;" parent="3Rc3quBiNQkCrMvvBPKZ-45" vertex="1">
                    <mxGeometry y="10" width="40" height="10" as="geometry"/>
                </mxCell>
                <mxCell id="3Rc3quBiNQkCrMvvBPKZ-47" value="&lt;font face=&quot;Garamond&quot;&gt;&lt;b&gt;これまでの記録&lt;/b&gt;&lt;/font&gt;" style="rounded=0;whiteSpace=wrap;html=1;fillColor=#000000;strokeColor=#FFFFFF;fontColor=#FFFFFF;" parent="3Rc3quBiNQkCrMvvBPKZ-45" vertex="1">
                    <mxGeometry x="40" width="170" height="30" as="geometry"/>
                </mxCell>
                <mxCell id="3Rc3quBiNQkCrMvvBPKZ-48" value="" style="group" parent="1" vertex="1" connectable="0">
                    <mxGeometry x="50" y="330" width="210" height="30" as="geometry"/>
                </mxCell>
                <mxCell id="3Rc3quBiNQkCrMvvBPKZ-49" value="" style="line;strokeWidth=2;html=1;fillColor=#FFFFFF;" parent="3Rc3quBiNQkCrMvvBPKZ-48" vertex="1">
                    <mxGeometry y="10" width="40" height="10" as="geometry"/>
                </mxCell>
                <mxCell id="3Rc3quBiNQkCrMvvBPKZ-50" value="&lt;font face=&quot;Garamond&quot;&gt;&lt;b&gt;みんなの記録&lt;/b&gt;&lt;/font&gt;" style="rounded=0;whiteSpace=wrap;html=1;fillColor=#000000;strokeColor=#FFFFFF;fontColor=#FFFFFF;" parent="3Rc3quBiNQkCrMvvBPKZ-48" vertex="1">
                    <mxGeometry x="40" width="170" height="30" as="geometry"/>
                </mxCell>
                <mxCell id="3Rc3quBiNQkCrMvvBPKZ-54" value="アニメーション" style="text;html=1;strokeColor=none;fillColor=none;align=center;verticalAlign=middle;whiteSpace=wrap;rounded=0;labelBackgroundColor=none;fontSize=10;fontColor=none;" parent="1" vertex="1">
                    <mxGeometry x="660" y="820" width="110" height="20" as="geometry"/>
                </mxCell>
                <mxCell id="3Rc3quBiNQkCrMvvBPKZ-56" value="モーダル表示でもいい" style="text;html=1;strokeColor=none;fillColor=none;align=center;verticalAlign=middle;whiteSpace=wrap;rounded=0;labelBackgroundColor=none;fontSize=10;fontColor=none;" parent="1" vertex="1">
                    <mxGeometry x="660" y="850" width="110" height="20" as="geometry"/>
                </mxCell>
                <mxCell id="3Rc3quBiNQkCrMvvBPKZ-57" value="&lt;span style=&quot;font-size: 8px&quot;&gt;ランキング（公開）登録&lt;/span&gt;" style="rounded=1;align=center;strokeColor=none;html=1;fontColor=#ffffff;fontSize=12;labelBackgroundColor=none;fillColor=#007FFF;" parent="1" vertex="1">
                    <mxGeometry x="450" y="860" width="120" height="20" as="geometry"/>
                </mxCell>
                <mxCell id="5OJf705Vxmwj8BCYeoYI-1" value="ログイン&amp;nbsp;" style="rounded=0;whiteSpace=wrap;html=1;labelBackgroundColor=none;fontSize=10;align=center;" parent="1" vertex="1">
                    <mxGeometry x="230" y="40" width="60" height="30" as="geometry"/>
                </mxCell>
                <mxCell id="5OJf705Vxmwj8BCYeoYI-2" value="" style="rounded=0;whiteSpace=wrap;html=1;fillColor=#000000;" parent="1" vertex="1">
                    <mxGeometry x="190" y="450" width="440" height="30" as="geometry"/>
                </mxCell>
                <mxCell id="Ieb5jxy5njfQtHQvgKjV-1" value="" style="html=1;verticalLabelPosition=bottom;align=center;labelBackgroundColor=#ffffff;verticalAlign=top;strokeWidth=2;shadow=0;dashed=0;shape=mxgraph.ios7.icons.user;fontSize=10;fontColor=none;fillColor=none;strokeColor=#FFFFFF;" parent="1" vertex="1">
                    <mxGeometry x="530" y="451.5" width="30" height="30" as="geometry"/>
                </mxCell>
                <mxCell id="Ieb5jxy5njfQtHQvgKjV-2" value="&lt;font style=&quot;font-size: 12px&quot; color=&quot;#ffffff&quot;&gt;RYO&lt;/font&gt;" style="text;html=1;strokeColor=none;fillColor=none;align=center;verticalAlign=middle;whiteSpace=wrap;rounded=0;labelBackgroundColor=none;fontSize=26;fontColor=#000000;" parent="1" vertex="1">
                    <mxGeometry x="570" y="451.5" width="40" height="20" as="geometry"/>
                </mxCell>
                <mxCell id="YNbEt8159gOLrIHQN5TX-1" value="&lt;font style=&quot;font-size: 12px&quot; color=&quot;#ffffff&quot;&gt;Piano採点&lt;/font&gt;" style="text;html=1;strokeColor=none;fillColor=none;align=center;verticalAlign=middle;whiteSpace=wrap;rounded=0;labelBackgroundColor=none;fontSize=26;fontColor=#000000;fontStyle=3" parent="1" vertex="1">
                    <mxGeometry x="210" y="451.5" width="70" height="20" as="geometry"/>
                </mxCell>
                <mxCell id="T2cOexvDursxdAI4raTk-1" value="欲しい機能&lt;br&gt;&lt;br&gt;・アップロードしたファイルを&lt;br&gt;保存しないでも利用できる&lt;br&gt;保存しながら利用できる&lt;br&gt;使い分けていきたい&lt;br&gt;&lt;br&gt;・録音どうする&lt;br&gt;Webでどう実現するか、&lt;br&gt;iPhoneの方がやりやすそうか調べる&lt;br&gt;&lt;br&gt;・結果のSNS共有&lt;br&gt;&lt;br&gt;・点数の詳細情報への遷移&lt;br&gt;演奏のあるポイントで評価されてる、減点されてる、みたいな可視化したい&lt;br&gt;&lt;br&gt;・Score出すまでに時間がかかるかも&lt;br&gt;どうにかしてユーザー負担無くしたい&lt;br&gt;→モデルを改善する&lt;br&gt;→待ち中に何かしら退屈させない&lt;br&gt;&lt;br&gt;・前回入力した内容が表示&lt;br&gt;・投稿内容のテンプレート保存&lt;br&gt;&lt;br&gt;・フォロー　フォロワー&lt;br&gt;（めんどくさくなりそうだから後回し）&lt;br&gt;&lt;br&gt;" style="text;html=1;fillColor=none;align=left;verticalAlign=middle;whiteSpace=wrap;rounded=0;strokeColor=#000000;" parent="1" vertex="1">
                    <mxGeometry x="-130" y="620" width="300" height="410" as="geometry"/>
                </mxCell>
            </root>
        </mxGraphModel>
    </diagram>
    <diagram id="inad0leWlo-gA2G2Xd5q" name="RANKING">
        &#xa;
        <mxGraphModel dx="898" dy="680" grid="1" gridSize="10" guides="1" tooltips="1" connect="1" arrows="1" fold="1" page="1" pageScale="1" pageWidth="827" pageHeight="1169" math="0" shadow="0">
            &#xa;
            <root>
                &#xa;
                <mxCell id="cpTVbMQMFTYyx2Wrn9bh-0"/>
                &#xa;
                <mxCell id="cpTVbMQMFTYyx2Wrn9bh-1" parent="cpTVbMQMFTYyx2Wrn9bh-0"/>
                &#xa;
                <mxCell id="IM-rP59wR0aw_ychoALt-0" value="" style="rounded=0;whiteSpace=wrap;html=1;" parent="cpTVbMQMFTYyx2Wrn9bh-1" vertex="1">
                    &#xa;
                    <mxGeometry x="60" y="120" width="440" height="610" as="geometry"/>
                    &#xa;
                </mxCell>
                &#xa;
                <mxCell id="jMZyvq_VUMN87UM4uZWJ-20" value="" style="group" parent="cpTVbMQMFTYyx2Wrn9bh-1" vertex="1" connectable="0">
                    &#xa;
                    <mxGeometry x="140" y="200" width="241" height="30" as="geometry"/>
                    &#xa;
                </mxCell>
                &#xa;
                <mxCell id="jMZyvq_VUMN87UM4uZWJ-0" value="" style="html=1;verticalLabelPosition=bottom;align=center;labelBackgroundColor=#ffffff;verticalAlign=top;strokeWidth=2;strokeColor=#0080F0;shadow=0;dashed=0;shape=mxgraph.ios7.icons.user;fontSize=10;fontColor=none;fillColor=none;" parent="jMZyvq_VUMN87UM4uZWJ-20" vertex="1">
                    &#xa;
                    <mxGeometry width="30" height="30" as="geometry"/>
                    &#xa;
                </mxCell>
                &#xa;
                <mxCell id="jMZyvq_VUMN87UM4uZWJ-1" value="RYO" style="text;html=1;strokeColor=none;fillColor=none;align=center;verticalAlign=middle;whiteSpace=wrap;rounded=0;labelBackgroundColor=none;fontSize=10;fontColor=none;" parent="jMZyvq_VUMN87UM4uZWJ-20" vertex="1">
                    &#xa;
                    <mxGeometry x="40" y="5" width="40" height="20" as="geometry"/>
                    &#xa;
                </mxCell>
                &#xa;
                <mxCell id="jMZyvq_VUMN87UM4uZWJ-2" value="99" style="text;html=1;strokeColor=none;fillColor=none;align=center;verticalAlign=middle;whiteSpace=wrap;rounded=0;labelBackgroundColor=none;fontSize=26;fontColor=none;" parent="jMZyvq_VUMN87UM4uZWJ-20" vertex="1">
                    &#xa;
                    <mxGeometry x="110" y="5" width="40" height="20" as="geometry"/>
                    &#xa;
                </mxCell>
                &#xa;
                <mxCell id="jMZyvq_VUMN87UM4uZWJ-3" value="" style="html=1;verticalLabelPosition=bottom;align=center;labelBackgroundColor=#ffffff;verticalAlign=top;strokeWidth=2;strokeColor=#0080F0;shadow=0;dashed=0;shape=mxgraph.ios7.icons.play;fontSize=26;fontColor=none;fillColor=none;" parent="jMZyvq_VUMN87UM4uZWJ-20" vertex="1">
                    &#xa;
                    <mxGeometry x="220" y="3" width="21" height="24" as="geometry"/>
                    &#xa;
                </mxCell>
                &#xa;
                <mxCell id="jMZyvq_VUMN87UM4uZWJ-24" value="80" style="text;html=1;strokeColor=none;fillColor=none;align=center;verticalAlign=middle;whiteSpace=wrap;rounded=0;labelBackgroundColor=none;fontSize=26;fontColor=none;" parent="cpTVbMQMFTYyx2Wrn9bh-1" vertex="1">
                    &#xa;
                    <mxGeometry x="250" y="265" width="40" height="20" as="geometry"/>
                    &#xa;
                </mxCell>
                &#xa;
                <mxCell id="jMZyvq_VUMN87UM4uZWJ-22" value="" style="html=1;verticalLabelPosition=bottom;align=center;labelBackgroundColor=#ffffff;verticalAlign=top;strokeWidth=2;strokeColor=#0080F0;shadow=0;dashed=0;shape=mxgraph.ios7.icons.user;fontSize=10;fontColor=none;fillColor=none;" parent="cpTVbMQMFTYyx2Wrn9bh-1" vertex="1">
                    &#xa;
                    <mxGeometry x="140" y="260" width="30" height="30" as="geometry"/>
                    &#xa;
                </mxCell>
                &#xa;
                <mxCell id="jMZyvq_VUMN87UM4uZWJ-23" value="加藤" style="text;html=1;strokeColor=none;fillColor=none;align=center;verticalAlign=middle;whiteSpace=wrap;rounded=0;labelBackgroundColor=none;fontSize=10;fontColor=none;" parent="cpTVbMQMFTYyx2Wrn9bh-1" vertex="1">
                    &#xa;
                    <mxGeometry x="180" y="265" width="40" height="20" as="geometry"/>
                    &#xa;
                </mxCell>
                &#xa;
                <mxCell id="jMZyvq_VUMN87UM4uZWJ-26" value="68" style="text;html=1;strokeColor=none;fillColor=none;align=center;verticalAlign=middle;whiteSpace=wrap;rounded=0;labelBackgroundColor=none;fontSize=26;fontColor=none;" parent="cpTVbMQMFTYyx2Wrn9bh-1" vertex="1">
                    &#xa;
                    <mxGeometry x="250" y="325" width="40" height="20" as="geometry"/>
                    &#xa;
                </mxCell>
                &#xa;
                <mxCell id="jMZyvq_VUMN87UM4uZWJ-27" value="" style="html=1;verticalLabelPosition=bottom;align=center;labelBackgroundColor=#ffffff;verticalAlign=top;strokeWidth=2;strokeColor=#0080F0;shadow=0;dashed=0;shape=mxgraph.ios7.icons.user;fontSize=10;fontColor=none;fillColor=none;" parent="cpTVbMQMFTYyx2Wrn9bh-1" vertex="1">
                    &#xa;
                    <mxGeometry x="140" y="320" width="30" height="30" as="geometry"/>
                    &#xa;
                </mxCell>
                &#xa;
                <mxCell id="jMZyvq_VUMN87UM4uZWJ-28" value="NoName" style="text;html=1;strokeColor=none;fillColor=none;align=center;verticalAlign=middle;whiteSpace=wrap;rounded=0;labelBackgroundColor=none;fontSize=10;fontColor=none;" parent="cpTVbMQMFTYyx2Wrn9bh-1" vertex="1">
                    &#xa;
                    <mxGeometry x="180" y="325" width="40" height="20" as="geometry"/>
                    &#xa;
                </mxCell>
                &#xa;
                <mxCell id="jMZyvq_VUMN87UM4uZWJ-29" value="" style="html=1;verticalLabelPosition=bottom;align=center;labelBackgroundColor=#ffffff;verticalAlign=top;strokeWidth=2;strokeColor=#0080F0;shadow=0;dashed=0;shape=mxgraph.ios7.icons.play;fontSize=26;fontColor=none;fillColor=none;" parent="cpTVbMQMFTYyx2Wrn9bh-1" vertex="1">
                    &#xa;
                    <mxGeometry x="360" y="323" width="21" height="24" as="geometry"/>
                    &#xa;
                </mxCell>
                &#xa;
                <mxCell id="jMZyvq_VUMN87UM4uZWJ-30" value="65" style="text;html=1;strokeColor=none;fillColor=none;align=center;verticalAlign=middle;whiteSpace=wrap;rounded=0;labelBackgroundColor=none;fontSize=26;fontColor=none;" parent="cpTVbMQMFTYyx2Wrn9bh-1" vertex="1">
                    &#xa;
                    <mxGeometry x="250" y="385" width="40" height="20" as="geometry"/>
                    &#xa;
                </mxCell>
                &#xa;
                <mxCell id="jMZyvq_VUMN87UM4uZWJ-31" value="" style="html=1;verticalLabelPosition=bottom;align=center;labelBackgroundColor=#ffffff;verticalAlign=top;strokeWidth=2;strokeColor=#0080F0;shadow=0;dashed=0;shape=mxgraph.ios7.icons.user;fontSize=10;fontColor=none;fillColor=none;" parent="cpTVbMQMFTYyx2Wrn9bh-1" vertex="1">
                    &#xa;
                    <mxGeometry x="140" y="380" width="30" height="30" as="geometry"/>
                    &#xa;
                </mxCell>
                &#xa;
                <mxCell id="jMZyvq_VUMN87UM4uZWJ-32" value="aaa" style="text;html=1;strokeColor=none;fillColor=none;align=center;verticalAlign=middle;whiteSpace=wrap;rounded=0;labelBackgroundColor=none;fontSize=10;fontColor=none;" parent="cpTVbMQMFTYyx2Wrn9bh-1" vertex="1">
                    &#xa;
                    <mxGeometry x="180" y="385" width="40" height="20" as="geometry"/>
                    &#xa;
                </mxCell>
                &#xa;
                <mxCell id="jMZyvq_VUMN87UM4uZWJ-33" value="" style="html=1;verticalLabelPosition=bottom;align=center;labelBackgroundColor=#ffffff;verticalAlign=top;strokeWidth=2;strokeColor=#0080F0;shadow=0;dashed=0;shape=mxgraph.ios7.icons.play;fontSize=26;fontColor=none;fillColor=none;" parent="cpTVbMQMFTYyx2Wrn9bh-1" vertex="1">
                    &#xa;
                    <mxGeometry x="360" y="383" width="21" height="24" as="geometry"/>
                    &#xa;
                </mxCell>
                &#xa;
                <mxCell id="jMZyvq_VUMN87UM4uZWJ-34" value="65" style="text;html=1;strokeColor=none;fillColor=none;align=center;verticalAlign=middle;whiteSpace=wrap;rounded=0;labelBackgroundColor=none;fontSize=26;fontColor=none;" parent="cpTVbMQMFTYyx2Wrn9bh-1" vertex="1">
                    &#xa;
                    <mxGeometry x="250" y="445" width="40" height="20" as="geometry"/>
                    &#xa;
                </mxCell>
                &#xa;
                <mxCell id="jMZyvq_VUMN87UM4uZWJ-35" value="" style="html=1;verticalLabelPosition=bottom;align=center;labelBackgroundColor=#ffffff;verticalAlign=top;strokeWidth=2;strokeColor=#0080F0;shadow=0;dashed=0;shape=mxgraph.ios7.icons.user;fontSize=10;fontColor=none;fillColor=none;" parent="cpTVbMQMFTYyx2Wrn9bh-1" vertex="1">
                    &#xa;
                    <mxGeometry x="140" y="440" width="30" height="30" as="geometry"/>
                    &#xa;
                </mxCell>
                &#xa;
                <mxCell id="jMZyvq_VUMN87UM4uZWJ-36" value="Noname" style="text;html=1;strokeColor=none;fillColor=none;align=center;verticalAlign=middle;whiteSpace=wrap;rounded=0;labelBackgroundColor=none;fontSize=10;fontColor=none;" parent="cpTVbMQMFTYyx2Wrn9bh-1" vertex="1">
                    &#xa;
                    <mxGeometry x="180" y="445" width="40" height="20" as="geometry"/>
                    &#xa;
                </mxCell>
                &#xa;
                <mxCell id="3mIKRtDa7ny7BWnAjEic-0" value="エリーゼのために" style="rounded=1;whiteSpace=wrap;html=1;labelBackgroundColor=none;fillColor=none;" parent="cpTVbMQMFTYyx2Wrn9bh-1" vertex="1">
                    &#xa;
                    <mxGeometry x="90" y="150" width="130" height="30" as="geometry"/>
                    &#xa;
                </mxCell>
                &#xa;
                <mxCell id="xHpZlrDMmjkAXSyzMJVv-0" value="" style="rounded=0;whiteSpace=wrap;html=1;fillColor=#000000;" parent="cpTVbMQMFTYyx2Wrn9bh-1" vertex="1">
                    &#xa;
                    <mxGeometry x="60" y="90" width="440" height="30" as="geometry"/>
                    &#xa;
                </mxCell>
                &#xa;
                <mxCell id="_oBEd-n03kPjukBqRojU-11" value="&lt;font color=&quot;#080808&quot;&gt;&amp;lt;&amp;lt;&amp;nbsp; &lt;/font&gt;&lt;font color=&quot;#ff0000&quot;&gt;1&lt;/font&gt;&lt;font color=&quot;#080808&quot;&gt; 2 3 4 5 6 7 8 9 10&amp;nbsp; &amp;gt;&amp;gt;&lt;/font&gt;" style="strokeWidth=1;shadow=0;dashed=0;align=center;html=1;shape=mxgraph.mockup.navigation.pagination;linkText=;fontSize=17;fontColor=#0000ff;fontStyle=4;labelBackgroundColor=none;fillColor=#ffffff;" parent="cpTVbMQMFTYyx2Wrn9bh-1" vertex="1">
                    &#xa;
                    <mxGeometry x="130" y="510" width="350" height="30" as="geometry"/>
                    &#xa;
                </mxCell>
                &#xa;
                <mxCell id="5v_fBChs1VcE8D1m5I0Y-29" value="&lt;font style=&quot;font-size: 10px&quot;&gt;他の曲を探す&lt;/font&gt;" style="strokeWidth=1;shadow=0;dashed=0;align=left;html=1;shape=mxgraph.mockup.forms.comboBox;strokeColor=#999999;fillColor=#ddeeff;align=left;fillColor2=#aaddff;mainText=;fontColor=#666666;fontSize=17;spacingLeft=3;labelBackgroundColor=none;" parent="cpTVbMQMFTYyx2Wrn9bh-1" vertex="1">
                    &#xa;
                    <mxGeometry x="310" y="155" width="170" height="20" as="geometry"/>
                    &#xa;
                </mxCell>
                &#xa;
                <mxCell id="mDzIoAoNwGUpQpL_4Mir-0" value="&lt;font style=&quot;font-size: 12px&quot; color=&quot;#ffffff&quot;&gt;Piano採点&lt;/font&gt;" style="text;html=1;strokeColor=none;fillColor=none;align=center;verticalAlign=middle;whiteSpace=wrap;rounded=0;labelBackgroundColor=none;fontSize=26;fontColor=#000000;fontStyle=3" parent="cpTVbMQMFTYyx2Wrn9bh-1" vertex="1">
                    &#xa;
                    <mxGeometry x="70" y="90" width="70" height="20" as="geometry"/>
                    &#xa;
                </mxCell>
                &#xa;
            </root>
            &#xa;
        </mxGraphModel>
        &#xa;
    </diagram>
    <diagram id="4HpNBhxujljwyRETHbB6" name="MYSCORE（Score)">
        <mxGraphModel dx="898" dy="545" grid="0" gridSize="10" guides="1" tooltips="1" connect="1" arrows="1" fold="1" page="1" pageScale="1" pageWidth="827" pageHeight="1169" background="#A3A3A3" math="0" shadow="1">
            <root>
                <mxCell id="oP6zgN_roBama4-uzWyA-0"/>
                <mxCell id="oP6zgN_roBama4-uzWyA-1" parent="oP6zgN_roBama4-uzWyA-0"/>
                <mxCell id="zHLv0p7wjEkk5zw7qu0Q-0" value="" style="rounded=0;whiteSpace=wrap;html=1;fillColor=#FFFFFF;" parent="oP6zgN_roBama4-uzWyA-1" vertex="1">
                    <mxGeometry x="60" y="120" width="440" height="610" as="geometry"/>
                </mxCell>
                <mxCell id="zHLv0p7wjEkk5zw7qu0Q-1" value="" style="group" parent="oP6zgN_roBama4-uzWyA-1" vertex="1" connectable="0">
                    <mxGeometry x="162" y="260" width="241" height="30" as="geometry"/>
                </mxCell>
                <mxCell id="zHLv0p7wjEkk5zw7qu0Q-4" value="99" style="text;html=1;strokeColor=none;fillColor=none;align=center;verticalAlign=middle;whiteSpace=wrap;rounded=0;labelBackgroundColor=none;fontSize=26;fontColor=none;" parent="zHLv0p7wjEkk5zw7qu0Q-1" vertex="1">
                    <mxGeometry x="50" y="12" width="40" height="20" as="geometry"/>
                </mxCell>
                <mxCell id="zHLv0p7wjEkk5zw7qu0Q-5" value="" style="html=1;verticalLabelPosition=bottom;align=center;labelBackgroundColor=#ffffff;verticalAlign=top;strokeWidth=2;strokeColor=#0080F0;shadow=0;dashed=0;shape=mxgraph.ios7.icons.play;fontSize=26;fontColor=none;fillColor=none;" parent="zHLv0p7wjEkk5zw7qu0Q-1" vertex="1">
                    <mxGeometry x="160" y="10" width="21" height="24" as="geometry"/>
                </mxCell>
                <mxCell id="zHLv0p7wjEkk5zw7qu0Q-6" value="80" style="text;html=1;strokeColor=none;fillColor=none;align=center;verticalAlign=middle;whiteSpace=wrap;rounded=0;labelBackgroundColor=none;fontSize=26;fontColor=none;" parent="oP6zgN_roBama4-uzWyA-1" vertex="1">
                    <mxGeometry x="212" y="332" width="40" height="20" as="geometry"/>
                </mxCell>
                <mxCell id="zHLv0p7wjEkk5zw7qu0Q-9" value="68" style="text;html=1;strokeColor=none;fillColor=none;align=center;verticalAlign=middle;whiteSpace=wrap;rounded=0;labelBackgroundColor=none;fontSize=26;fontColor=none;" parent="oP6zgN_roBama4-uzWyA-1" vertex="1">
                    <mxGeometry x="212" y="392" width="40" height="20" as="geometry"/>
                </mxCell>
                <mxCell id="zHLv0p7wjEkk5zw7qu0Q-12" value="" style="html=1;verticalLabelPosition=bottom;align=center;labelBackgroundColor=#ffffff;verticalAlign=top;strokeWidth=2;strokeColor=#0080F0;shadow=0;dashed=0;shape=mxgraph.ios7.icons.play;fontSize=26;fontColor=none;fillColor=none;" parent="oP6zgN_roBama4-uzWyA-1" vertex="1">
                    <mxGeometry x="322" y="390" width="21" height="24" as="geometry"/>
                </mxCell>
                <mxCell id="zHLv0p7wjEkk5zw7qu0Q-13" value="65" style="text;html=1;strokeColor=none;fillColor=none;align=center;verticalAlign=middle;whiteSpace=wrap;rounded=0;labelBackgroundColor=none;fontSize=26;fontColor=none;" parent="oP6zgN_roBama4-uzWyA-1" vertex="1">
                    <mxGeometry x="212" y="452" width="40" height="20" as="geometry"/>
                </mxCell>
                <mxCell id="zHLv0p7wjEkk5zw7qu0Q-16" value="" style="html=1;verticalLabelPosition=bottom;align=center;labelBackgroundColor=#ffffff;verticalAlign=top;strokeWidth=2;strokeColor=#0080F0;shadow=0;dashed=0;shape=mxgraph.ios7.icons.play;fontSize=26;fontColor=none;fillColor=none;" parent="oP6zgN_roBama4-uzWyA-1" vertex="1">
                    <mxGeometry x="322" y="450" width="21" height="24" as="geometry"/>
                </mxCell>
                <mxCell id="zHLv0p7wjEkk5zw7qu0Q-17" value="65" style="text;html=1;strokeColor=none;fillColor=none;align=center;verticalAlign=middle;whiteSpace=wrap;rounded=0;labelBackgroundColor=none;fontSize=26;fontColor=none;" parent="oP6zgN_roBama4-uzWyA-1" vertex="1">
                    <mxGeometry x="212" y="512" width="40" height="20" as="geometry"/>
                </mxCell>
                <mxCell id="zHLv0p7wjEkk5zw7qu0Q-20" value="エリーゼのために" style="rounded=1;whiteSpace=wrap;html=1;labelBackgroundColor=none;fillColor=none;strokeColor=#000000;fontColor=#000000;" parent="oP6zgN_roBama4-uzWyA-1" vertex="1">
                    <mxGeometry x="90" y="150" width="130" height="30" as="geometry"/>
                </mxCell>
                <mxCell id="zHLv0p7wjEkk5zw7qu0Q-21" value="" style="rounded=0;whiteSpace=wrap;html=1;fillColor=#000000;" parent="oP6zgN_roBama4-uzWyA-1" vertex="1">
                    <mxGeometry x="60" y="90" width="440" height="30" as="geometry"/>
                </mxCell>
                <mxCell id="zHLv0p7wjEkk5zw7qu0Q-22" value="&lt;font color=&quot;#080808&quot;&gt;&amp;lt;&amp;lt;&amp;nbsp; &lt;/font&gt;&lt;font color=&quot;#ff0000&quot;&gt;1&lt;/font&gt;&lt;font color=&quot;#080808&quot;&gt; 2 3 4 5 6 7 8 9 10&amp;nbsp; &amp;gt;&amp;gt;&lt;/font&gt;" style="strokeWidth=1;shadow=0;dashed=0;align=center;html=1;shape=mxgraph.mockup.navigation.pagination;linkText=;fontSize=17;fontColor=#0000ff;fontStyle=4;labelBackgroundColor=none;fillColor=#ffffff;" parent="oP6zgN_roBama4-uzWyA-1" vertex="1">
                    <mxGeometry x="250" y="570" width="270" height="60" as="geometry"/>
                </mxCell>
                <mxCell id="zHLv0p7wjEkk5zw7qu0Q-23" value="&lt;font style=&quot;font-size: 10px&quot;&gt;他の曲を探す&lt;/font&gt;" style="strokeWidth=1;shadow=0;dashed=0;align=left;html=1;shape=mxgraph.mockup.forms.comboBox;strokeColor=#999999;fillColor=#ddeeff;align=left;fillColor2=#aaddff;mainText=;fontColor=#666666;fontSize=17;spacingLeft=3;labelBackgroundColor=none;" parent="oP6zgN_roBama4-uzWyA-1" vertex="1">
                    <mxGeometry x="310" y="155" width="170" height="20" as="geometry"/>
                </mxCell>
                <mxCell id="zHLv0p7wjEkk5zw7qu0Q-24" value="" style="html=1;verticalLabelPosition=bottom;align=center;labelBackgroundColor=#ffffff;verticalAlign=top;strokeWidth=2;strokeColor=#0080F0;shadow=0;dashed=0;shape=mxgraph.ios7.icons.play;fontSize=26;fontColor=none;fillColor=none;" parent="oP6zgN_roBama4-uzWyA-1" vertex="1">
                    <mxGeometry x="322" y="328" width="21" height="24" as="geometry"/>
                </mxCell>
                <mxCell id="zHLv0p7wjEkk5zw7qu0Q-25" value="" style="html=1;verticalLabelPosition=bottom;align=center;labelBackgroundColor=#ffffff;verticalAlign=top;strokeWidth=2;strokeColor=#0080F0;shadow=0;dashed=0;shape=mxgraph.ios7.icons.play;fontSize=26;fontColor=none;fillColor=none;" parent="oP6zgN_roBama4-uzWyA-1" vertex="1">
                    <mxGeometry x="322" y="510" width="21" height="24" as="geometry"/>
                </mxCell>
                <mxCell id="zHLv0p7wjEkk5zw7qu0Q-26" value="&lt;font style=&quot;font-size: 13px&quot;&gt;2020/04/19&lt;/font&gt;" style="text;html=1;strokeColor=none;fillColor=none;align=center;verticalAlign=middle;whiteSpace=wrap;rounded=0;labelBackgroundColor=none;fontSize=26;fontColor=#000000;" parent="oP6zgN_roBama4-uzWyA-1" vertex="1">
                    <mxGeometry x="142" y="270" width="40" height="20" as="geometry"/>
                </mxCell>
                <mxCell id="zHLv0p7wjEkk5zw7qu0Q-27" value="&lt;font style=&quot;font-size: 13px&quot;&gt;2020/04/19&lt;/font&gt;" style="text;html=1;strokeColor=none;fillColor=none;align=center;verticalAlign=middle;whiteSpace=wrap;rounded=0;labelBackgroundColor=none;fontSize=26;fontColor=#000000;" parent="oP6zgN_roBama4-uzWyA-1" vertex="1">
                    <mxGeometry x="140" y="330" width="40" height="20" as="geometry"/>
                </mxCell>
                <mxCell id="zHLv0p7wjEkk5zw7qu0Q-28" value="&lt;font style=&quot;font-size: 13px&quot;&gt;2020/04/19&lt;/font&gt;" style="text;html=1;strokeColor=none;fillColor=none;align=center;verticalAlign=middle;whiteSpace=wrap;rounded=0;labelBackgroundColor=none;fontSize=26;fontColor=#000000;" parent="oP6zgN_roBama4-uzWyA-1" vertex="1">
                    <mxGeometry x="142" y="392" width="40" height="20" as="geometry"/>
                </mxCell>
                <mxCell id="zHLv0p7wjEkk5zw7qu0Q-29" value="&lt;font style=&quot;font-size: 13px&quot;&gt;2020/04/19&lt;/font&gt;" style="text;html=1;strokeColor=none;fillColor=none;align=center;verticalAlign=middle;whiteSpace=wrap;rounded=0;labelBackgroundColor=none;fontSize=26;fontColor=#000000;" parent="oP6zgN_roBama4-uzWyA-1" vertex="1">
                    <mxGeometry x="142" y="452" width="40" height="20" as="geometry"/>
                </mxCell>
                <mxCell id="zHLv0p7wjEkk5zw7qu0Q-30" value="&lt;font style=&quot;font-size: 13px&quot;&gt;2020/04/19&lt;/font&gt;" style="text;html=1;strokeColor=none;fillColor=none;align=center;verticalAlign=middle;whiteSpace=wrap;rounded=0;labelBackgroundColor=none;fontSize=26;fontColor=#000000;" parent="oP6zgN_roBama4-uzWyA-1" vertex="1">
                    <mxGeometry x="142" y="512" width="40" height="20" as="geometry"/>
                </mxCell>
                <mxCell id="9diEpQ9Ta8cYnKPfYGx4-0" value="&lt;font color=&quot;#ffffff&quot;&gt;Score&lt;/font&gt;" style="strokeWidth=1;shadow=0;dashed=0;align=center;html=1;shape=mxgraph.mockup.forms.uRect;fontSize=12;fontColor=#666666;align=left;spacingLeft=5;strokeColor=#666666;labelBackgroundColor=none;fillColor=#080808;fontStyle=0" parent="oP6zgN_roBama4-uzWyA-1" vertex="1">
                    <mxGeometry x="330" y="220" width="65" height="20" as="geometry"/>
                </mxCell>
                <mxCell id="7KJHtR3VxO4xySdN3NZa-2" style="edgeStyle=orthogonalEdgeStyle;rounded=0;orthogonalLoop=1;jettySize=auto;html=1;fontSize=12;fontColor=#080808;" parent="oP6zgN_roBama4-uzWyA-1" source="9diEpQ9Ta8cYnKPfYGx4-1" edge="1">
                    <mxGeometry relative="1" as="geometry">
                        <mxPoint x="550" y="230" as="targetPoint"/>
                    </mxGeometry>
                </mxCell>
                <mxCell id="9diEpQ9Ta8cYnKPfYGx4-1" value="グラフ" style="strokeWidth=1;shadow=0;dashed=0;align=center;html=1;shape=mxgraph.mockup.forms.uRect;fontSize=12;align=left;spacingLeft=5;labelBackgroundColor=none;fillColor=#FFFFFF;fontColor=#080808;strokeColor=#080808;" parent="oP6zgN_roBama4-uzWyA-1" vertex="1">
                    <mxGeometry x="400" y="220" width="70" height="20" as="geometry"/>
                </mxCell>
                <mxCell id="vER7DfwujztFi8eaOxn5-0" value="&lt;font style=&quot;font-size: 12px&quot; color=&quot;#ffffff&quot;&gt;Piano採点&lt;/font&gt;" style="text;html=1;strokeColor=none;fillColor=none;align=center;verticalAlign=middle;whiteSpace=wrap;rounded=0;labelBackgroundColor=none;fontSize=26;fontColor=#000000;fontStyle=3" parent="oP6zgN_roBama4-uzWyA-1" vertex="1">
                    <mxGeometry x="70" y="90" width="70" height="20" as="geometry"/>
                </mxCell>
                <mxCell id="7KJHtR3VxO4xySdN3NZa-4" value="他　レーダーチャートとか" style="text;html=1;strokeColor=none;fillColor=none;align=center;verticalAlign=middle;whiteSpace=wrap;rounded=0;labelBackgroundColor=none;fontSize=12;fontColor=#080808;" parent="oP6zgN_roBama4-uzWyA-1" vertex="1">
                    <mxGeometry x="570" y="220" width="170" height="20" as="geometry"/>
                </mxCell>
                <mxCell id="7KJHtR3VxO4xySdN3NZa-8" value="" style="shape=image;verticalLabelPosition=bottom;labelBackgroundColor=#ffffff;verticalAlign=top;aspect=fixed;imageAspect=0;image=https://www.yosato.net/wp-content/uploads/2019/05/050719_0219_1.png;" parent="oP6zgN_roBama4-uzWyA-1" vertex="1">
                    <mxGeometry x="560" y="254.5" width="178.26" height="159.5" as="geometry"/>
                </mxCell>
            </root>
        </mxGraphModel>
    </diagram>
    <diagram id="o-zhPHLmkjhSWaumSwWv" name="MYSCORE（グラフ)">
        &#xa;
        <mxGraphModel dx="898" dy="680" grid="1" gridSize="10" guides="1" tooltips="1" connect="1" arrows="1" fold="1" page="1" pageScale="1" pageWidth="827" pageHeight="1169" math="0" shadow="0">
            &#xa;
            <root>
                &#xa;
                <mxCell id="ZtxaTcMJVVirn4OB9FzO-0"/>
                &#xa;
                <mxCell id="ZtxaTcMJVVirn4OB9FzO-1" parent="ZtxaTcMJVVirn4OB9FzO-0"/>
                &#xa;
                <mxCell id="RdSjkpGlKgCo09pxBAMu-0" value="" style="rounded=0;whiteSpace=wrap;html=1;" parent="ZtxaTcMJVVirn4OB9FzO-1" vertex="1">
                    &#xa;
                    <mxGeometry x="60" y="120" width="440" height="610" as="geometry"/>
                    &#xa;
                </mxCell>
                &#xa;
                <mxCell id="RdSjkpGlKgCo09pxBAMu-10" value="エリーゼのために" style="rounded=1;whiteSpace=wrap;html=1;labelBackgroundColor=none;fillColor=none;" parent="ZtxaTcMJVVirn4OB9FzO-1" vertex="1">
                    &#xa;
                    <mxGeometry x="90" y="150" width="130" height="30" as="geometry"/>
                    &#xa;
                </mxCell>
                &#xa;
                <mxCell id="RdSjkpGlKgCo09pxBAMu-11" value="" style="rounded=0;whiteSpace=wrap;html=1;fillColor=#000000;" parent="ZtxaTcMJVVirn4OB9FzO-1" vertex="1">
                    &#xa;
                    <mxGeometry x="60" y="90" width="440" height="30" as="geometry"/>
                    &#xa;
                </mxCell>
                &#xa;
                <mxCell id="RdSjkpGlKgCo09pxBAMu-13" value="&lt;font style=&quot;font-size: 10px&quot;&gt;他の曲を探す&lt;/font&gt;" style="strokeWidth=1;shadow=0;dashed=0;align=left;html=1;shape=mxgraph.mockup.forms.comboBox;strokeColor=#999999;fillColor=#ddeeff;align=left;fillColor2=#aaddff;mainText=;fontColor=#666666;fontSize=17;spacingLeft=3;labelBackgroundColor=none;" parent="ZtxaTcMJVVirn4OB9FzO-1" vertex="1">
                    &#xa;
                    <mxGeometry x="310" y="155" width="170" height="20" as="geometry"/>
                    &#xa;
                </mxCell>
                &#xa;
                <mxCell id="RdSjkpGlKgCo09pxBAMu-21" value="&lt;font&gt;Score&lt;/font&gt;" style="strokeWidth=1;shadow=0;dashed=0;align=center;html=1;shape=mxgraph.mockup.forms.uRect;fontSize=12;align=left;spacingLeft=5;strokeColor=#666666;labelBackgroundColor=none;fontStyle=0;fillColor=#FFFFFF;fontColor=#080808;" parent="ZtxaTcMJVVirn4OB9FzO-1" vertex="1">
                    &#xa;
                    <mxGeometry x="330" y="220" width="65" height="20" as="geometry"/>
                    &#xa;
                </mxCell>
                &#xa;
                <mxCell id="RdSjkpGlKgCo09pxBAMu-22" value="グラフ" style="strokeWidth=1;shadow=0;dashed=0;align=center;html=1;shape=mxgraph.mockup.forms.uRect;fontSize=12;align=left;spacingLeft=5;labelBackgroundColor=none;strokeColor=#080808;fontColor=#FFFFFF;fillColor=#080808;" parent="ZtxaTcMJVVirn4OB9FzO-1" vertex="1">
                    &#xa;
                    <mxGeometry x="400" y="220" width="70" height="20" as="geometry"/>
                    &#xa;
                </mxCell>
                &#xa;
                <mxCell id="RdSjkpGlKgCo09pxBAMu-23" value="&lt;font style=&quot;font-size: 12px&quot; color=&quot;#ffffff&quot;&gt;Piano採点&lt;/font&gt;" style="text;html=1;strokeColor=none;fillColor=none;align=center;verticalAlign=middle;whiteSpace=wrap;rounded=0;labelBackgroundColor=none;fontSize=26;fontColor=#000000;fontStyle=3" parent="ZtxaTcMJVVirn4OB9FzO-1" vertex="1">
                    &#xa;
                    <mxGeometry x="70" y="90" width="70" height="20" as="geometry"/>
                    &#xa;
                </mxCell>
                &#xa;
                <mxCell id="RdSjkpGlKgCo09pxBAMu-24" value="" style="verticalLabelPosition=bottom;shadow=0;dashed=0;align=center;html=1;verticalAlign=top;strokeWidth=1;shape=mxgraph.mockup.graphics.lineChart;strokeColor=none;strokeColor2=#666666;strokeColor3=#008cff;strokeColor4=#dddddd;labelBackgroundColor=none;fontSize=12;fontColor=#FFFFFF;fillColor=none;" parent="ZtxaTcMJVVirn4OB9FzO-1" vertex="1">
                    &#xa;
                    <mxGeometry x="105" y="300" width="350" height="180" as="geometry"/>
                    &#xa;
                </mxCell>
                &#xa;
                <mxCell id="z3W7PEXd5sZJdg8IvMLZ-0" value="4/19" style="text;html=1;strokeColor=none;fillColor=none;align=center;verticalAlign=middle;whiteSpace=wrap;rounded=0;labelBackgroundColor=none;fontSize=12;fontColor=#080808;" parent="ZtxaTcMJVVirn4OB9FzO-1" vertex="1">
                    &#xa;
                    <mxGeometry x="140" y="490" width="40" height="20" as="geometry"/>
                    &#xa;
                </mxCell>
                &#xa;
                <mxCell id="z3W7PEXd5sZJdg8IvMLZ-1" value="4/20" style="text;html=1;strokeColor=none;fillColor=none;align=center;verticalAlign=middle;whiteSpace=wrap;rounded=0;labelBackgroundColor=none;fontSize=12;fontColor=#080808;" parent="ZtxaTcMJVVirn4OB9FzO-1" vertex="1">
                    &#xa;
                    <mxGeometry x="200" y="490" width="40" height="20" as="geometry"/>
                    &#xa;
                </mxCell>
                &#xa;
                <mxCell id="z3W7PEXd5sZJdg8IvMLZ-2" value="4/24" style="text;html=1;strokeColor=none;fillColor=none;align=center;verticalAlign=middle;whiteSpace=wrap;rounded=0;labelBackgroundColor=none;fontSize=12;fontColor=#080808;" parent="ZtxaTcMJVVirn4OB9FzO-1" vertex="1">
                    &#xa;
                    <mxGeometry x="255" y="490" width="40" height="20" as="geometry"/>
                    &#xa;
                </mxCell>
                &#xa;
                <mxCell id="z3W7PEXd5sZJdg8IvMLZ-3" value="5/5" style="text;html=1;strokeColor=none;fillColor=none;align=center;verticalAlign=middle;whiteSpace=wrap;rounded=0;labelBackgroundColor=none;fontSize=12;fontColor=#080808;" parent="ZtxaTcMJVVirn4OB9FzO-1" vertex="1">
                    &#xa;
                    <mxGeometry x="305" y="490" width="40" height="20" as="geometry"/>
                    &#xa;
                </mxCell>
                &#xa;
                <mxCell id="z3W7PEXd5sZJdg8IvMLZ-4" value="5/30" style="text;html=1;strokeColor=none;fillColor=none;align=center;verticalAlign=middle;whiteSpace=wrap;rounded=0;labelBackgroundColor=none;fontSize=12;fontColor=#080808;" parent="ZtxaTcMJVVirn4OB9FzO-1" vertex="1">
                    &#xa;
                    <mxGeometry x="355" y="490" width="40" height="20" as="geometry"/>
                    &#xa;
                </mxCell>
                &#xa;
                <mxCell id="z3W7PEXd5sZJdg8IvMLZ-5" value="65" style="text;html=1;strokeColor=none;fillColor=none;align=center;verticalAlign=middle;whiteSpace=wrap;rounded=0;labelBackgroundColor=none;fontSize=12;fontColor=#080808;" parent="ZtxaTcMJVVirn4OB9FzO-1" vertex="1">
                    &#xa;
                    <mxGeometry x="140" y="510" width="40" height="20" as="geometry"/>
                    &#xa;
                </mxCell>
                &#xa;
                <mxCell id="z3W7PEXd5sZJdg8IvMLZ-6" value="70" style="text;html=1;strokeColor=none;fillColor=none;align=center;verticalAlign=middle;whiteSpace=wrap;rounded=0;labelBackgroundColor=none;fontSize=12;fontColor=#080808;" parent="ZtxaTcMJVVirn4OB9FzO-1" vertex="1">
                    &#xa;
                    <mxGeometry x="200" y="510" width="40" height="20" as="geometry"/>
                    &#xa;
                </mxCell>
                &#xa;
                <mxCell id="z3W7PEXd5sZJdg8IvMLZ-7" value="80" style="text;html=1;strokeColor=none;fillColor=none;align=center;verticalAlign=middle;whiteSpace=wrap;rounded=0;labelBackgroundColor=none;fontSize=12;fontColor=#080808;" parent="ZtxaTcMJVVirn4OB9FzO-1" vertex="1">
                    &#xa;
                    <mxGeometry x="255" y="510" width="40" height="20" as="geometry"/>
                    &#xa;
                </mxCell>
                &#xa;
                <mxCell id="z3W7PEXd5sZJdg8IvMLZ-8" value="90" style="text;html=1;strokeColor=none;fillColor=none;align=center;verticalAlign=middle;whiteSpace=wrap;rounded=0;labelBackgroundColor=none;fontSize=12;fontColor=#080808;" parent="ZtxaTcMJVVirn4OB9FzO-1" vertex="1">
                    &#xa;
                    <mxGeometry x="305" y="510" width="40" height="20" as="geometry"/>
                    &#xa;
                </mxCell>
                &#xa;
                <mxCell id="z3W7PEXd5sZJdg8IvMLZ-9" value="95" style="text;html=1;strokeColor=none;fillColor=none;align=center;verticalAlign=middle;whiteSpace=wrap;rounded=0;labelBackgroundColor=none;fontSize=12;fontColor=#080808;" parent="ZtxaTcMJVVirn4OB9FzO-1" vertex="1">
                    &#xa;
                    <mxGeometry x="355" y="510" width="40" height="20" as="geometry"/>
                    &#xa;
                </mxCell>
                &#xa;
            </root>
            &#xa;
        </mxGraphModel>
        &#xa;
    </diagram>
</mxfile>